# xmcd
#
# Track frame offsets:
#	182
#	19882
#	38145
#	56557
#	73232
#	95925
#	116107
#	135237
#	150757
#	166082
#	181182
#	197257
#	213907
#	229965
#	246965
#	264865
#	282945
#	300420
#	334107
#
# Disc length: 4795 seconds
#
# Revision: 4
# Processed by: cddbd v1.5.2PL0 Copyright (c) Steve Scherf et al.
# Submitted via: audiograbber 1.83.01
#
DISCID=0012b913
DTITLE=Various Artist - Touch My Soul - The Finest Of Black Music Vol.22 [CD 1of2)
DYEAR=2002
DGENRE=Soul
TTITLE0=Alicia Keys - A Woman's Worth
TTITLE1=Wyclef Jean - Wish You Were Here
TTITLE2=Jennifer Lopez - Ain't It Funny
TTITLE3=Missy Elliott Ft. Ginuwine and Tweet - Take Away
TTITLE4=R. Kelly - A Woman's Threat
TTITLE5=Angie Stone - Brotha
TTITLE6=N' Sync - Girlfriend
TTITLE7=Inessa and Dante Thomas - Guilty
TTITLE8=Mis-Teeq - B With Me
TTITLE9=Anastacia - Paid My Dues
TTITLE10=Deborah Cox - Absolutely Not
TTITLE11=Nivea - Run Away (I Wanna Be With U)
TTITLE12=Toya - I Do!!
TTITLE13=Erick Sermon - I'm Hot
TTITLE14=D-Influence D-Vas Ft. Shola Ama - This I Promise You
TTITLE15=Linda Carriere - Just Friends
TTITLE16=Charlemaine - Still On My Mind
TTITLE17=TLC - I Miss You So Much
TTITLE18=Various Artist - ddff
EXTD=
EXTT0=
EXTT1=
EXTT2=
EXTT3=
EXTT4=
EXTT5=
EXTT6=
EXTT7=
EXTT8=
EXTT9=
EXTT10=
EXTT11=
EXTT12=
EXTT13=
EXTT14=
EXTT15=
EXTT16=
EXTT17=
EXTT18=
PLAYORDER=
